<svg xmlns="http://www.w3.org/2000/svg" width="408.706" height="78.965" viewBox="0 0 408.706 78.965"><path d="M32.909.155C25.785.155 20.5 2.764 16.652 6.58l.004-.017c-1.137 1.147-1.872.321-1.893-.827l-.021-1.265a2.949 2.949 0 0 0-2.929-2.879H3.005A2.895 2.895 0 0 0 .12 4.472L0 76.085a2.882 2.882 0 0 0 2.875 2.88h9.605a2.903 2.903 0 0 0 2.892-2.88l.091-21.262c.006-1.316 1.063-1.835 2.055-.82l-.001-.004c4.263 3.894 9.598 6.215 15.392 6.215 16.708 0 25.279-13.444 25.279-30.03C58.188 10.541 45.594.155 32.909.155zm-4.277 48.491c-9.582 0-13.764-9.086-13.764-18.372 0-12.039 6.162-18.371 13.764-18.371 7.603 0 13.764 5.544 13.764 18.371 0 13.915-6.165 18.372-13.764 18.372zM406.648 1.593h-9.679c-1.584 0-3.285 1.231-3.781 2.735l-10.495 31.851c-.496 1.504-2.368 1.565-2.883.067L368.85 4.317c-.515-1.499-2.231-2.724-3.815-2.724h-10.167c-1.584 0-2.437 1.218-1.895 2.707l18.347 50.41c2.145 5.9-.858 10.787-6.894 10.787-1.729 0-3.327.009-4.601.011a2.89 2.89 0 0 0-2.88 2.88v7.257a2.888 2.888 0 0 0 2.88 2.88h7.284c9.264 0 15.373-2.629 20.314-16.203l1.778-4.885L408.541 4.3c.544-1.489-.309-2.707-1.893-2.707zm-59.321 35.516l-8.703-.311c-1.583-.055-3.312 1.122-3.834 2.617-2.363 5.512-6.771 9.23-11.833 9.23-7.553 0-13.681-6.019-13.681-18.449 0-11.187 5.048-18.449 13.681-18.449 4.891 0 9.185 2.382 11.604 7.524.674 1.433 2.31 2.639 3.892 2.565l8.827-.416c1.573-.074 2.621-1.386 2.289-2.921C345.999 4.329 335.215 0 323.082 0c-22.758 0-29.625 19.78-29.625 30.071 0 17.929 11.945 30.071 29.625 30.071 13.232 0 23.196-7.027 26.527-20.145.309-1.534-.712-2.83-2.282-2.888zm-60.984 18.78a33.742 33.742 0 0 1-1.232-8.985V14.176c0-3.801-2.56-14.105-23.11-14.105-13.114 0-24.816 2.445-28.122 16.173-.347 1.53.772 2.809 2.347 2.848l8.801.214c1.583.038 3.395-1.135 3.979-2.607v.023c1.655-3.208 4.734-6.271 11.198-6.271 5.87 0 9.63 3.349 9.63 6.975 0 6.844-9.066 7.086-15.499 8.01-3.414.491-22.75 1.016-22.75 17.861 0 12.188 10.629 16.895 19.252 16.895 7.183 0 13.031-1.991 17.231-4.799 1.238-.829 2.071-.353 2.795.935 1.062 1.449 2.324 2.292 4.373 2.292h9.126c2.002 0 2.296-1.782 1.978-2.73h.003zm-16.592-19.285c-.223 12.96-10.404 15.546-16.981 13.114-3.498-1.293-5.711-4.313-5.431-7.273.875-9.254 12.432-8.412 20.351-9.824 1.486-.183 2.084.263 2.068 2.411a816.48 816.48 0 0 1-.007 1.572zM205.038.009c-5.208 0-11.116.727-17.334 7.897l-.015-.007c-1.451 1.761-2.604.703-3.155-.304l-.043-.007c-3.096-4.675-8.086-7.45-14.282-7.45-5.719 0-11.514.704-17.643 7.666l-.037.01c-.699.791-1.197.355-1.219-.968l-.041-2.375a2.949 2.949 0 0 0-2.929-2.879h-8.809a2.895 2.895 0 0 0-2.885 2.88l-.092 51.267a2.882 2.882 0 0 0 2.875 2.88h9.625a2.915 2.915 0 0 0 2.903-2.879l-.185-21.593c.064-13.617 2.131-20.708 9.726-21.545 8.451-.934 11.043 5.233 11.043 9.925l-.06 33.212a2.882 2.882 0 0 0 2.875 2.88h9.625a2.915 2.915 0 0 0 2.903-2.879l-.126-18.155c-.285-16.819.974-23.972 9.9-25.114 7.293-.933 10.606 5.199 10.657 9.742l-.03 16.712-.03 16.813a2.882 2.882 0 0 0 2.875 2.88h9.625a2.915 2.915 0 0 0 2.903-2.879l.208-35.652C223.868 8.125 215.663.009 205.038.009zm-82.183 1.584h-9.743a2.888 2.888 0 0 0-2.88 2.88V55.74a2.888 2.888 0 0 0 2.88 2.879h9.743a2.888 2.888 0 0 0 2.88-2.879V4.473a2.888 2.888 0 0 0-2.88-2.88zm-23.367.696c-9.691.027-13.631 4.161-17.587 9.818-.935 1.265-1.616.688-1.638-.552l-.081-4.798a2.949 2.949 0 0 0-2.929-2.879h-8.851a2.895 2.895 0 0 0-2.885 2.88l-.081 48.982a2.882 2.882 0 0 0 2.875 2.88h9.657a2.902 2.902 0 0 0 2.892-2.879l.019-4.215c.007-1.584-.01-4.176-.037-5.759l-.255-15.089c-.191-11.318 8.75-13.748 18.893-14.081a2.887 2.887 0 0 0 2.863-2.878V5.167a2.887 2.887 0 0 0-2.855-2.878z"/></svg>