<?xml version="1.0" encoding="utf-8"?>
<!-- Generator: Adobe Illustrator 16.0.0, SVG Export Plug-In . SVG Version: 6.00 Build 0)  -->
<!DOCTYPE svg PUBLIC "-//W3C//DTD SVG 1.1//EN" "http://www.w3.org/Graphics/SVG/1.1/DTD/svg11.dtd">
<svg version="1.1" id="Layer_1" xmlns="http://www.w3.org/2000/svg" xmlns:xlink="http://www.w3.org/1999/xlink" x="0px" y="0px"
	 width="49.25px" height="41.137px" viewBox="0 0 49.25 41.137" enable-background="new 0 0 49.25 41.137" xml:space="preserve">
<g>
	<path fill="#1783BC" d="M25.949,18.463v-0.064c-0.013,0.021-0.028,0.043-0.041,0.064H25.949z"/>
	<path fill="#1783BC" d="M41.888-0.167H6.911c-1.674,0-3.032,1.325-3.032,2.959v35.386c0,1.633,1.358,2.959,3.032,2.959h34.977
		c1.676,0,3.034-1.326,3.034-2.959V2.792C44.922,1.158,43.564-0.167,41.888-0.167z M16.319,34.409H10.12v-18.65h6.199V34.409z
		 M13.22,13.211h-0.042c-2.08,0-3.424-1.433-3.424-3.223c0-1.829,1.387-3.222,3.506-3.222c2.121,0,3.426,1.393,3.467,3.222
		C16.728,11.779,15.381,13.211,13.22,13.211z M38.673,34.409h-6.199V24.43c0-2.506-0.897-4.217-3.14-4.217
		c-1.712,0-2.732,1.153-3.181,2.268c-0.164,0.398-0.204,0.955-0.204,1.512v10.416H19.75c0,0,0.081-16.902,0-18.65h6.199v2.64
		c0.824-1.271,2.297-3.08,5.588-3.08c4.078,0,7.136,2.667,7.136,8.396V34.409z"/>
</g>
</svg>
