<?xml version="1.0" encoding="utf-8"?>
<!-- Generator: Adobe Illustrator 16.0.0, SVG Export Plug-In . SVG Version: 6.00 Build 0)  -->
<!DOCTYPE svg PUBLIC "-//W3C//DTD SVG 1.1//EN" "http://www.w3.org/Graphics/SVG/1.1/DTD/svg11.dtd">
<svg version="1.1" id="Layer_1" xmlns="http://www.w3.org/2000/svg" xmlns:xlink="http://www.w3.org/1999/xlink" x="0px" y="0px"
	 width="49.25px" height="41.137px" viewBox="0 0 49.25 41.137" enable-background="new 0 0 49.25 41.137" xml:space="preserve">
<path fill="#23BBDB" d="M49.25,5.84c-1.812,0.805-3.76,1.348-5.805,1.591c2.087-1.25,3.689-3.23,4.444-5.592
	c-1.953,1.159-4.115,2-6.418,2.454C39.627,2.329,37,1.102,34.094,1.102c-5.582,0-10.107,4.525-10.107,10.107
	c0,0.792,0.089,1.563,0.262,2.303c-8.4-0.421-15.848-4.444-20.833-10.56C2.546,4.444,2.048,6.18,2.048,8.033
	c0,3.506,1.784,6.6,4.496,8.413c-1.656-0.053-3.215-0.507-4.578-1.265c-0.001,0.042-0.001,0.084-0.001,0.128
	c0,4.896,3.484,8.981,8.108,9.91c-0.848,0.23-1.741,0.354-2.663,0.354c-0.652,0-1.285-0.063-1.902-0.182
	c1.287,4.015,5.019,6.938,9.441,7.019c-3.459,2.711-7.816,4.327-12.552,4.327c-0.815,0-1.62-0.048-2.411-0.141
	c4.474,2.868,9.786,4.541,15.493,4.541c18.591,0,28.756-15.401,28.756-28.757c0-0.438-0.009-0.875-0.028-1.308
	C46.181,9.648,47.896,7.868,49.25,5.84z"/>
</svg>
